{
	"asset":{
		"generator":"Khronos glTF Blender I/O v4.0.44",
		"version":"2.0"
	},
	"scene":0,
	"scenes":[
		{
			"name":"Scene",
			"nodes":[
				0
			]
		}
	],
	"nodes":[
		{
			"mesh":0,
			"name":"nodes mountain 1"
		}
	],
	"materials":[
		{
			"doubleSided":true,
			"name":"Material.001",
			"normalTexture":{
				"index":0
			},
			"pbrMetallicRoughness":{
				"baseColorTexture":{
					"index":1
				},
				"metallicFactor":0,
				"metallicRoughnessTexture":{
					"index":2
				}
			}
		}
	],
	"meshes":[
		{
			"name":"nodes mountain 1.001",
			"primitives":[
				{
					"attributes":{
						"POSITION":0,
						"NORMAL":1,
						"TEXCOORD_0":2
					},
					"indices":3,
					"material":0
				}
			]
		}
	],
	"textures":[
		{
			"sampler":0,
			"source":0
		},
		{
			"sampler":0,
			"source":1
		},
		{
			"sampler":0,
			"source":2
		}
	],
	"images":[
		{
			"mimeType":"image/png",
			"name":"snowy_mountains_norm",
			"uri":"snowy_mountains_norm.png"
		},
		{
			"mimeType":"image/png",
			"name":"snowy_mountains_diff",
			"uri":"snowy_mountains_diff.png"
		},
		{
			"mimeType":"image/png",
			"name":"snowy_mountains_rough",
			"uri":"snowy_mountains_rough.png"
		}
	],
	"accessors":[
		{
			"bufferView":0,
			"componentType":5126,
			"count":986049,
			"max":[
				1.0000001192092896,
				0.56103515625,
				1.0000001192092896
			],
			"min":[
				-1.0000001192092896,
				0,
				-1.0000001192092896
			],
			"type":"VEC3"
		},
		{
			"bufferView":1,
			"componentType":5126,
			"count":986049,
			"type":"VEC3"
		},
		{
			"bufferView":2,
			"componentType":5126,
			"count":986049,
			"type":"VEC2"
		},
		{
			"bufferView":3,
			"componentType":5125,
			"count":5904384,
			"type":"SCALAR"
		}
	],
	"bufferViews":[
		{
			"buffer":0,
			"byteLength":11832588,
			"byteOffset":0,
			"target":34962
		},
		{
			"buffer":0,
			"byteLength":11832588,
			"byteOffset":11832588,
			"target":34962
		},
		{
			"buffer":0,
			"byteLength":7888392,
			"byteOffset":23665176,
			"target":34962
		},
		{
			"buffer":0,
			"byteLength":23617536,
			"byteOffset":31553568,
			"target":34963
		}
	],
	"samplers":[
		{
			"magFilter":9729,
			"minFilter":9987
		}
	],
	"buffers":[
		{
			"byteLength":55171104,
			"uri":"snowy_mountains.bin"
		}
	]
}
